<svg width="86" height="92" viewBox="0 0 86 92" fill="none" xmlns="http://www.w3.org/2000/svg">
<path d="M58.1202 38.3756C56.6584 35.1418 54.2956 32.4504 51.3756 30.6643C48.4233 28.8623 46.7686 25.5402 46.7686 22.1781C46.7686 20.4529 46.7686 17.572 46.7686 15.162L51.5041 17.0757C54.036 18.099 56.0943 14.743 54.1777 12.7167L44.7766 2.77794C43.7955 1.74069 42.2048 1.74069 41.2237 2.77794L31.8226 12.7167C29.9059 14.743 31.9641 18.0988 34.4962 17.0757L39.2318 15.162C39.2318 17.5255 39.2318 20.3594 39.2318 22.1825C39.2318 28.2945 42.2399 34.2901 47.6068 37.566C50.3593 39.2499 52.2117 42.3966 52.2117 46.001C52.2117 47.7752 51.763 49.4385 50.9789 50.871" stroke="#878787" stroke-width="2.15913" stroke-miterlimit="10" stroke-linecap="round" stroke-linejoin="round"/>
<path d="M46.7375 68.7428C46.406 63.0124 43.4443 57.5209 38.3937 54.4381C35.6407 52.7542 33.7883 49.6074 33.7883 46.003C33.7883 44.2288 34.237 42.5655 35.0212 41.1328" stroke="#878787" stroke-width="2.15913" stroke-miterlimit="10" stroke-linecap="round" stroke-linejoin="round"/>
<path d="M26.4583 48.7773C27.2588 54.1476 30.343 58.7156 34.6263 61.3358C37.5786 63.1378 39.2334 66.4599 39.2334 69.8221C39.2334 71.5472 39.2334 74.4281 39.2334 76.8381L34.4978 74.9244C31.9659 73.9011 29.9077 77.2571 31.8242 79.2834L41.2253 89.2222C42.2065 90.2594 43.7971 90.2594 44.7782 89.2222L54.1793 79.2834C56.0961 77.2571 54.0378 73.9013 51.5057 74.9244L46.7702 76.8381C46.7702 74.4747 46.7702 75.8903 46.7702 74.0672" stroke="#878787" stroke-width="2.15913" stroke-miterlimit="10" stroke-linecap="round" stroke-linejoin="round"/>
<path d="M45.6873 63.4869C50.742 62.6257 55.0398 59.3728 57.5089 54.8613C59.2134 51.7402 62.3558 49.9907 65.5361 49.9907C67.1679 49.9907 69.8929 49.9907 72.1726 49.9907L70.3624 54.9971C69.3945 57.6738 72.5689 59.8498 74.4856 57.8235L83.8867 47.8847C84.8679 46.8475 84.8679 45.1659 83.8867 44.1286L74.4856 34.1899C72.5689 32.1635 69.3945 34.3395 70.3624 37.0164L72.1726 42.0227C69.937 42.0227 67.2563 42.0227 65.5319 42.0227C59.7505 42.0227 54.0792 45.2029 50.9805 50.8768C49.985 52.6958 48.449 54.143 46.6046 54.9723" stroke="#878787" stroke-width="2.15913" stroke-miterlimit="10" stroke-linecap="round" stroke-linejoin="round"/>
<path d="M25.3633 40.5511C23.8882 41.5123 22.1817 42.0226 20.4639 42.0226C18.8321 42.0226 16.1071 42.0226 13.8274 42.0226L15.6376 37.0162C16.6055 34.3395 13.4311 32.1635 11.5144 34.1899L2.1133 44.1286C1.13216 45.1659 1.13216 46.8475 2.1133 47.8847L11.5144 57.8235C13.4311 59.8498 16.6055 57.6738 15.6376 54.997L13.8274 49.9906C16.063 49.9906 18.7437 49.9906 20.4681 49.9906C26.2495 49.9906 31.9208 46.8105 35.0195 41.1365C36.6123 38.2264 39.5889 36.2681 42.9983 36.2681C44.6765 36.2681 46.2499 36.7424 47.605 37.5715" stroke="#878787" stroke-width="2.15913" stroke-miterlimit="10" stroke-linecap="round" stroke-linejoin="round"/>
<path d="M40.3247 28.5195C35.4735 29.3409 31.3183 32.3647 28.8052 36.5904" stroke="#878787" stroke-width="2.15913" stroke-miterlimit="10" stroke-linecap="round" stroke-linejoin="round"/>
</svg>
