<svg width="73" height="81" viewBox="0 0 73 81" fill="none" xmlns="http://www.w3.org/2000/svg">
    <path d="M16.0087 79.9922H6.28094C3.69347 79.9922 1.57397 78.0376 1.57397 75.6463V6.02556C1.57397 3.63429 3.69347 1.67969 6.28094 1.67969H47.1299L67.0424 17.3167V50.2613M55.3601 79.9922H15.5834" stroke="#878787" stroke-width="1.71004" stroke-miterlimit="10" stroke-linecap="round" stroke-linejoin="round"/>
    <path d="M66.9675 17.832H52.8674C49.6912 17.832 47.092 15.3639 47.092 12.3413V1.72585" stroke="#878787" stroke-width="1.71004" stroke-miterlimit="10" stroke-linecap="round" stroke-linejoin="round"/>
    <path d="M13.5339 25.8203H55.0376" stroke="#878787" stroke-width="1.71004" stroke-miterlimit="10" stroke-linecap="round" stroke-linejoin="round"/>
    <path d="M41.5145 35.1094H55.0376M13.5339 35.1094H27.8429" stroke="#878787" stroke-width="1.71004" stroke-miterlimit="10" stroke-linecap="round" stroke-linejoin="round"/>
    <path d="M13.5337 44.4141H55.0374" stroke="#878787" stroke-width="1.71004" stroke-miterlimit="10" stroke-linecap="round" stroke-linejoin="round"/>
    <path d="M27.2109 53.6992H43.2454M13.5339 53.6992H17.4409" stroke="#878787" stroke-width="1.71004" stroke-miterlimit="10" stroke-linecap="round" stroke-linejoin="round"/>
    <path d="M13.5366 16.5195H37.4618" stroke="#878787" stroke-width="1.71004" stroke-miterlimit="10" stroke-linecap="round" stroke-linejoin="round"/>
    <path d="M13.5339 63.1094H37.4591" stroke="#878787" stroke-width="1.71004" stroke-miterlimit="10" stroke-linecap="round" stroke-linejoin="round"/>
    <path d="M58.413 77.4297C55.3946 75.7277 52.9395 72.8519 51.0477 69.5214C49.1418 66.1675 48.1073 62.6263 48.1391 59.2857C48.1533 57.8044 48.5041 57.6405 49.8077 56.9783L59.784 51.899L69.7602 56.9783C71.0604 57.6405 71.4111 57.8044 71.4252 59.2857C71.4571 62.6263 70.4227 66.1675 68.5168 69.5214C66.625 72.8519 64.1699 75.7277 61.1514 77.4297C59.9435 78.112 59.621 78.112 58.413 77.4297Z" stroke="#878787" stroke-width="1.71004" stroke-miterlimit="10" stroke-linecap="round" stroke-linejoin="round"/>
    <path d="M57.2168 64.468L59.6315 66.6016L64.6366 61.7589" stroke="#878787" stroke-width="1.71004" stroke-miterlimit="10" stroke-linecap="round" stroke-linejoin="round"/>
</svg>
