<svg width="628" height="538" viewBox="0 0 628 538" fill="none" xmlns="http://www.w3.org/2000/svg">
    <g filter="url(#filter0_d_491_2701)">
        <rect x="5" y="1.69165" width="491.08" height="366.355" rx="20" fill="black" stroke="#5E5E5E" stroke-width="2"/>
        <g filter="url(#filter1_df_491_2701)">
            <path d="M68.6934 83.6853C68.6934 72.0874 78.0954 62.6854 89.6934 62.6854H584C595.598 62.6854 605 72.0874 605 83.6854V429.518C605 441.116 595.598 450.518 584 450.518H89.6933C78.0954 450.518 68.6934 441.116 68.6934 429.518V83.6853Z" fill="black"/>
            <path d="M69.6934 83.6853C69.6934 72.6396 78.6477 63.6854 89.6934 63.6854H584C595.046 63.6854 604 72.6397 604 83.6854V429.518C604 440.564 595.046 449.518 584 449.518H89.6933C78.6477 449.518 69.6934 440.564 69.6934 429.518V83.6853Z" stroke="white" stroke-width="2"/>
        </g>
        <rect x="70" y="65" width="534.307" height="384.933" rx="20" fill="black" stroke="#F5F5F5" stroke-width="2"/>
        <path d="M143.013 214.367V119.73H148.047V214.367H143.013ZM145.127 202.89C139.892 202.89 134.858 202.051 130.025 200.373C125.26 198.628 121.568 196.413 118.951 193.728L121.87 187.989C124.354 190.406 127.676 192.453 131.837 194.131C136.066 195.742 140.496 196.547 145.127 196.547C149.557 196.547 153.148 196.01 155.899 194.936C158.718 193.795 160.766 192.285 162.041 190.406C163.383 188.526 164.054 186.446 164.054 184.164C164.054 181.412 163.249 179.197 161.638 177.519C160.094 175.841 158.047 174.532 155.497 173.592C152.946 172.586 150.127 171.713 147.04 170.975C143.952 170.236 140.865 169.465 137.777 168.659C134.69 167.787 131.837 166.646 129.22 165.236C126.669 163.827 124.589 161.981 122.978 159.699C121.434 157.35 120.662 154.296 120.662 150.537C120.662 147.047 121.568 143.859 123.38 140.973C125.26 138.02 128.112 135.67 131.938 133.925C135.764 132.113 140.663 131.207 146.637 131.207C150.597 131.207 154.523 131.778 158.416 132.919C162.309 133.992 165.665 135.503 168.484 137.449L165.967 143.389C162.947 141.375 159.725 139.899 156.302 138.959C152.946 138.02 149.691 137.55 146.536 137.55C142.308 137.55 138.818 138.12 136.066 139.261C133.314 140.402 131.267 141.946 129.925 143.892C128.649 145.772 128.012 147.92 128.012 150.336C128.012 153.088 128.783 155.303 130.327 156.981C131.938 158.659 134.019 159.967 136.569 160.907C139.187 161.847 142.039 162.686 145.127 163.424C148.214 164.162 151.268 164.968 154.289 165.84C157.376 166.713 160.195 167.854 162.746 169.263C165.363 170.606 167.444 172.418 168.988 174.7C170.598 176.982 171.404 179.969 171.404 183.66C171.404 187.083 170.464 190.271 168.585 193.225C166.706 196.111 163.819 198.46 159.927 200.272C156.101 202.017 151.168 202.89 145.127 202.89Z" fill="white"/>
        <path d="M319.57 154.525H209.01V194.437H559.836V154.525H365.039" stroke="#F5F5F5" stroke-width="10" stroke-linecap="round" stroke-linejoin="round"/>
        <path d="M209.01 124.802L430.341 124.256" stroke="#F5F5F5" stroke-width="10" stroke-linecap="round" stroke-linejoin="round"/>
        <path d="M209.01 224.923H560.314" stroke="#F5F5F5" stroke-width="10" stroke-linecap="round" stroke-linejoin="round"/>
        <path d="M457.137 124.202L552.659 123.971" stroke="#F5F5F5" stroke-width="10" stroke-linecap="round" stroke-linejoin="round"/>
        <path d="M114.219 305.469L197.194 305.238" stroke="#F5F5F5" stroke-width="10" stroke-linecap="round" stroke-linejoin="round"/>
        <path d="M114.219 344.318H176.581" stroke="#F5F5F5" stroke-width="10" stroke-linecap="round" stroke-linejoin="round"/>
        <path d="M114.219 382.567H155.794" stroke="#F5F5F5" stroke-width="10" stroke-linecap="round" stroke-linejoin="round"/>
        <path d="M559.604 305.469L476.628 305.238" stroke="#F5F5F5" stroke-width="10" stroke-linecap="round" stroke-linejoin="round"/>
        <path d="M559.604 344.319H497.241" stroke="#F5F5F5" stroke-width="10" stroke-linecap="round" stroke-linejoin="round"/>
        <path d="M559.604 382.567H518.028" stroke="#F5F5F5" stroke-width="10" stroke-linecap="round" stroke-linejoin="round"/>
        <path d="M297.906 450.857V524.691L336.345 510.2L373.763 524.691V450.857" stroke="#F5F5F5" stroke-width="10" stroke-linecap="round" stroke-linejoin="round"/>
        <path d="M241.68 368.51L237.548 365.695L241.68 368.51L255.893 347.647C257.3 345.58 258.082 343.151 258.145 340.651L258.773 315.415C258.804 314.177 259.593 313.085 260.759 312.666L284.52 304.142C286.873 303.297 288.934 301.792 290.453 299.806L286.605 296.861L290.453 299.806L305.795 279.759C306.548 278.775 307.828 278.355 309.018 278.702L333.251 285.772C335.652 286.472 338.203 286.465 340.6 285.752L364.795 278.551C365.983 278.198 367.265 278.611 368.023 279.591L383.473 299.554L387.428 296.494L383.473 299.554C385.004 301.532 387.072 303.026 389.43 303.858L413.237 312.254C414.405 312.666 415.2 313.753 415.238 314.992L416.003 340.224C416.079 342.723 416.874 345.148 418.293 347.207L432.618 367.993C433.321 369.013 433.324 370.36 432.627 371.384L418.415 392.247C417.007 394.314 416.225 396.743 416.163 399.242L415.534 424.478C415.503 425.717 414.714 426.809 413.548 427.227L389.788 435.752C387.434 436.597 385.374 438.102 383.854 440.088L368.512 460.135C367.759 461.119 366.479 461.538 365.29 461.191L341.056 454.122C338.655 453.422 336.104 453.428 333.707 454.142L309.512 461.342C308.325 461.696 307.042 461.283 306.284 460.303L290.834 440.34C289.303 438.362 287.235 436.868 284.877 436.036L261.07 427.64C259.902 427.228 259.107 426.14 259.069 424.902L258.304 399.67C258.229 397.17 257.433 394.746 256.014 392.687L241.69 371.901C240.987 370.881 240.983 369.533 241.68 368.51Z" fill="black" stroke="#F5F5F5" stroke-width="10"/>
        <path d="M395.061 370.449C395.061 402.638 369.186 428.663 337.353 428.663C305.519 428.663 279.645 402.638 279.645 370.449C279.645 338.261 305.519 312.235 337.353 312.235C369.186 312.235 395.061 338.261 395.061 370.449Z" stroke="#F5F5F5" stroke-width="10"/>
        <path d="M348.496 375.072C346.891 379.518 343.016 383.039 336.872 383.039C331.442 383.039 326.841 380.146 325.038 375.072H314.035C314.852 380.164 316.946 384.191 319.978 387.09C325.774 392.657 332.99 392.839 335.666 392.709C345.631 392.225 351.433 384.987 352.296 383.87L350.042 391.415H360V375.072H348.496ZM349.868 348.849C350.891 351.445 351.916 354.041 352.94 356.636C352.04 355.503 346.072 348.232 335.917 347.811C333.556 347.712 325.473 347.793 319.388 354.116C316.654 356.96 314.749 360.749 314 365.447H324.92C326.637 360.189 331.315 357.222 336.867 357.222C343.131 357.222 347.034 360.883 348.582 365.447H359.994V348.849H349.868Z" fill="white"/>
    </g>
    <defs>
        <filter id="filter0_d_491_2701" x="0" y="0.69165" width="609.307" height="537" filterUnits="userSpaceOnUse" color-interpolation-filters="sRGB">
            <feFlood flood-opacity="0" result="BackgroundImageFix"/>
            <feColorMatrix in="SourceAlpha" type="matrix" values="0 0 0 0 0 0 0 0 0 0 0 0 0 0 0 0 0 0 127 0" result="hardAlpha"/>
            <feOffset dy="4"/>
            <feGaussianBlur stdDeviation="2"/>
            <feComposite in2="hardAlpha" operator="out"/>
            <feColorMatrix type="matrix" values="0 0 0 0 0 0 0 0 0 0 0 0 0 0 0 0 0 0 0.25 0"/>
            <feBlend mode="normal" in2="BackgroundImageFix" result="effect1_dropShadow_491_2701"/>
            <feBlend mode="normal" in="SourceGraphic" in2="effect1_dropShadow_491_2701" result="shape"/>
        </filter>
        <filter id="filter1_df_491_2701" x="45.6934" y="39.6854" width="582.307" height="433.833" filterUnits="userSpaceOnUse" color-interpolation-filters="sRGB">
            <feFlood flood-opacity="0" result="BackgroundImageFix"/>
            <feColorMatrix in="SourceAlpha" type="matrix" values="0 0 0 0 0 0 0 0 0 0 0 0 0 0 0 0 0 0 127 0" result="hardAlpha"/>
            <feOffset dy="4"/>
            <feGaussianBlur stdDeviation="6.5"/>
            <feComposite in2="hardAlpha" operator="out"/>
            <feColorMatrix type="matrix" values="0 0 0 0 1 0 0 0 0 1 0 0 0 0 1 0 0 0 0.26 0"/>
            <feBlend mode="normal" in2="BackgroundImageFix" result="effect1_dropShadow_491_2701"/>
            <feBlend mode="normal" in="SourceGraphic" in2="effect1_dropShadow_491_2701" result="shape"/>
            <feGaussianBlur stdDeviation="11.5" result="effect2_foregroundBlur_491_2701"/>
        </filter>
    </defs>
</svg>
