<svg width="413" height="826" viewBox="0 0 413 826" fill="none" xmlns="http://www.w3.org/2000/svg">
<mask id="path-1-inside-1_48_425" fill="white">
<path d="M-3.61056e-05 826C109.534 826 214.583 782.488 292.035 705.035C369.488 627.583 413 522.534 413 413C413 303.466 369.488 198.417 292.035 120.965C214.583 43.5124 109.534 3.27434e-06 6.10352e-05 -1.80528e-05L5.75002e-05 80.8702C88.0864 80.8702 172.565 115.862 234.851 178.149C297.138 240.435 332.13 324.914 332.13 413C332.13 501.086 297.138 585.565 234.851 647.851C172.565 710.138 88.0863 745.13 -3.25707e-05 745.13L-3.61056e-05 826Z"/>
</mask>
<path d="M-3.61056e-05 826C109.534 826 214.583 782.488 292.035 705.035C369.488 627.583 413 522.534 413 413C413 303.466 369.488 198.417 292.035 120.965C214.583 43.5124 109.534 3.27434e-06 6.10352e-05 -1.80528e-05L5.75002e-05 80.8702C88.0864 80.8702 172.565 115.862 234.851 178.149C297.138 240.435 332.13 324.914 332.13 413C332.13 501.086 297.138 585.565 234.851 647.851C172.565 710.138 88.0863 745.13 -3.25707e-05 745.13L-3.61056e-05 826Z" stroke="#252525" stroke-width="4" mask="url(#path-1-inside-1_48_425)"/>
</svg>
