<svg width="32" height="32" viewBox="0 0 32 32" fill="none" xmlns="http://www.w3.org/2000/svg">
    <path d="M16 0C7.15681 0 0 7.156 0 16C0 24.8431 7.156 32 16 32C24.8432 32 32 24.844 32 16C32 7.15681 24.844 0 16 0ZM16 29.7674C8.40862 29.7674 2.23256 23.5914 2.23256 16C2.23256 8.40856 8.40862 2.23256 16 2.23256C23.5914 2.23256 29.7674 8.40856 29.7674 16C29.7674 23.5914 23.5914 29.7674 16 29.7674Z" fill="white"/>
    <path d="M15.5284 20.2454C14.6438 20.2454 13.9277 20.9825 13.9277 21.867C13.9277 22.7305 14.6227 23.4887 15.5284 23.4887C16.434 23.4887 17.15 22.7305 17.15 21.867C17.15 20.9825 16.4129 20.2454 15.5284 20.2454Z" fill="white"/>
    <path d="M15.8013 7.96692C12.9581 7.96692 11.6523 9.65186 11.6523 10.7891C11.6523 11.6105 12.3473 11.9896 12.916 11.9896C14.0533 11.9896 13.59 10.3679 15.7382 10.3679C16.7912 10.3679 17.6337 10.8312 17.6337 11.8C17.6337 12.9373 16.4542 13.5902 15.7592 14.1799C15.1484 14.7063 14.3482 15.5699 14.3482 17.3811C14.3482 18.4762 14.643 18.7922 15.5065 18.7922C16.5384 18.7922 16.749 18.3289 16.749 17.9286C16.749 16.8335 16.7701 16.2017 17.9285 15.296C18.4971 14.8538 20.2872 13.4216 20.2872 11.4419C20.2872 9.46223 18.4971 7.96692 15.8013 7.96692Z" fill="white"/>
</svg>
