<svg width="300" height="300" viewBox="0 0 300 300" fill="none" xmlns="http://www.w3.org/2000/svg">
    <path d="M150 300C232.843 300 300 232.843 300 150C300 67.1573 232.843 0 150 0C67.1573 0 0 67.1573 0 150C0 232.843 67.1573 300 150 300Z"
          fill="url(#paint0_linear_2292_4797)"/>
    <path d="M233.64 78.428C233.64 78.428 224.043 75.6857 194.701 67.7333C163.713 59.7808 149.728 57.0386 149.728 57.0386C149.728 57.0386 135.743 59.7808 104.755 67.7333C75.6878 74.8631 65.8158 78.428 65.8158 78.428C65.8158 78.428 64.1705 108.318 77.3332 161.243C88.0279 204.571 127.516 228.154 149.728 242.413C171.666 229.251 211.428 204.571 222.123 161.243C235.56 108.592 233.64 78.428 233.64 78.428ZM177.425 140.128L122.58 194.973L142.872 150.823H119.015L146.437 106.673H180.715L150.002 140.128H177.425Z"
          fill="#191919"/>
    <defs>
        <linearGradient id="paint0_linear_2292_4797" x1="20.0819" y1="225.01" x2="274.606" y2="78.0614"
                        gradientUnits="userSpaceOnUse">
            <stop stop-color="#32FDEF"/>
            <stop offset="0.27" stop-color="#2FFCB1"/>
            <stop offset="0.61" stop-color="#2CFA6B"/>
            <stop offset="0.85" stop-color="#2AF93F"/>
            <stop offset="1" stop-color="#29F92E"/>
        </linearGradient>
    </defs>
</svg>
