<svg width="82" height="82" viewBox="0 0 32 32" fill="none" xmlns="http://www.w3.org/2000/svg">
    <g clip-path="url(#clip0_487_1904)">
        <path fill-rule="evenodd" clip-rule="evenodd" d="M16 0C24.8372 0 32 7.16282 32 16C32 24.8372 24.8372 32 16 32C7.16282 32 0 24.8372 0 16C0 7.16282 7.16282 0 16 0Z" fill="#F0B90B"/>
        <path d="M8.79281 16.0007L8.80435 20.2314L12.3992 22.3468V24.8237L6.7005 21.4814V14.7635L8.79281 16.0007ZM8.79281 11.7699V14.2353L6.69922 12.9968V10.5314L8.79281 9.29297L10.8967 10.5314L8.79281 11.7699ZM13.9005 10.5314L15.9941 9.29297L18.0979 10.5314L15.9941 11.7699L13.9005 10.5314Z" fill="white"/>
        <path d="M10.3066 19.3545V16.8776L12.4002 18.116V20.5814L10.3066 19.3545ZM13.9015 23.234L15.9951 24.4725L18.0989 23.234V25.6994L15.9951 26.9378L13.9015 25.6994V23.234ZM21.1015 10.5314L23.1951 9.29297L25.2989 10.5314V12.9968L23.1951 14.2353V11.7699L21.1015 10.5314ZM23.1951 20.2314L23.2066 16.0007L25.3002 14.7622V21.4801L19.6015 24.8225V22.3455L23.1951 20.2314Z" fill="white"/>
        <path d="M21.6932 19.3539L19.5996 20.5808V18.1154L21.6932 16.877V19.3539Z" fill="white"/>
        <path d="M21.6938 12.6458L21.7054 15.1228L18.1002 17.2381V21.4792L16.0066 22.7061L13.913 21.4792V17.2381L10.3079 15.1228V12.6458L12.4105 11.4074L15.9938 13.533L19.5989 11.4074L21.7028 12.6458H21.6938ZM10.3066 8.41635L15.9951 5.0625L21.6938 8.41635L19.6002 9.65481L15.9951 7.52917L12.4002 9.65481L10.3066 8.41635Z" fill="white"/>
    </g>
    <defs>
        <clipPath id="clip0_487_1904">
            <rect width="32" height="32" fill="white"/>
        </clipPath>
    </defs>
</svg>
