<svg width="154" height="154" viewBox="0 0 154 154" fill="none" xmlns="http://www.w3.org/2000/svg">
    <g clip-path="url(#clip0_487_1904)">
        <path fill-rule="evenodd" clip-rule="evenodd" d="M77 0C119.529 0 154 34.4711 154 77C154 119.529 119.529 154 77 154C34.4711 154 0 119.529 0 77C0 34.4711 34.4711 0 77 0Z" fill="#F0B90B"/>
        <path d="M42.3195 76.9995L42.3751 97.3601L59.6754 107.54V119.461L32.2503 103.376V71.0456L42.3195 76.9995ZM42.3195 56.6389V68.5036L32.2441 62.5435V50.6788L42.3195 44.7188L52.4443 50.6788L42.3195 56.6389ZM66.9003 50.6788L76.9757 44.7188L87.1005 50.6788L76.9757 56.6389L66.9003 50.6788Z" fill="white"/>
        <path d="M49.5996 93.1399V81.2197L59.675 87.1798V99.0445L49.5996 93.1399ZM66.8999 111.81L76.9753 117.77L87.1001 111.81V123.675L76.9753 129.635L66.8999 123.675V111.81ZM101.55 50.6788L111.625 44.7188L121.75 50.6788V62.5435L111.625 68.5036V56.6389L101.55 50.6788ZM111.625 97.3601L111.681 76.9995L121.756 71.0394V103.37L94.3312 119.454V107.534L111.625 97.3601Z" fill="white"/>
        <path d="M104.4 93.1409L94.3242 99.0455V87.1808L104.4 81.2207V93.1409Z" fill="white"/>
        <path d="M104.4 60.86L104.456 72.7802L87.1063 82.9605V103.37L77.0309 109.275L66.9555 103.37V82.9605L49.6058 72.7802V60.86L59.7244 54.8999L76.9692 65.1296L94.3188 54.8999L104.444 60.86H104.4ZM49.5996 40.5056L76.9753 24.3652L104.4 40.5056L94.325 46.4657L76.9753 36.2361L59.675 46.4657L49.5996 40.5056Z" fill="white"/>
        <rect width="154" height="34.3662" rx="11.9079" fill="#AD0F0F"/>
        <path d="M41.2001 14.0595V11.6021H50.9639V14.0595H47.585V22.8359H44.579V14.0595H41.2001ZM52.1117 22.8359V11.6021H60.208V14.0595H55.1615V15.9903H59.7911V18.4477H55.1615V20.3785H60.1861V22.8359H52.1117ZM67.7763 15.1126C67.7471 14.747 67.61 14.4617 67.3649 14.2569C67.1236 14.0522 66.7561 13.9498 66.2624 13.9498C65.9479 13.9498 65.6901 13.9882 65.489 14.065C65.2915 14.1381 65.1452 14.2387 65.0501 14.3666C64.9551 14.4946 64.9057 14.6409 64.902 14.8055C64.8947 14.9408 64.9185 15.0633 64.9734 15.173C65.0319 15.279 65.1233 15.3759 65.2476 15.4637C65.372 15.5478 65.531 15.6246 65.7248 15.6941C65.9187 15.7636 66.149 15.8257 66.416 15.8806L67.3375 16.0781C67.9592 16.2097 68.4913 16.3834 68.9337 16.5992C69.3762 16.8149 69.7382 17.0691 70.0198 17.3616C70.3014 17.6505 70.508 17.976 70.6397 18.338C70.775 18.7 70.8444 19.095 70.8481 19.5228C70.8444 20.2615 70.6598 20.8868 70.2941 21.3988C69.9284 21.9108 69.4055 22.3002 68.7253 22.5672C68.0488 22.8341 67.2351 22.9676 66.2843 22.9676C65.308 22.9676 64.4559 22.8231 63.7282 22.5342C63.0041 22.2454 62.441 21.801 62.0387 21.2013C61.6401 20.5979 61.439 19.8263 61.4353 18.8865H64.3316C64.3499 19.2303 64.4358 19.5192 64.5894 19.7532C64.743 19.9872 64.9587 20.1646 65.2366 20.2853C65.5182 20.406 65.8528 20.4663 66.2405 20.4663C66.5659 20.4663 66.8384 20.4261 67.0578 20.3456C67.2772 20.2652 67.4436 20.1536 67.5569 20.011C67.6703 19.8684 67.7288 19.7057 67.7325 19.5228C67.7288 19.3509 67.6721 19.201 67.5624 19.073C67.4564 18.9414 67.2808 18.8244 67.0358 18.722C66.7908 18.6159 66.4599 18.5172 66.043 18.4258L64.924 18.1844C63.9293 17.9687 63.1449 17.6085 62.5708 17.1038C62.0003 16.5955 61.7169 15.9025 61.7206 15.0249C61.7169 14.3118 61.9071 13.6883 62.291 13.1544C62.6787 12.6168 63.2144 12.1981 63.8982 11.8983C64.5857 11.5984 65.3738 11.4485 66.2624 11.4485C67.1693 11.4485 67.9537 11.6002 68.6156 11.9037C69.2775 12.2073 69.7876 12.6351 70.146 13.1873C70.508 13.7358 70.6909 14.3776 70.6945 15.1126H67.7763ZM71.7011 14.0595V11.6021H81.4649V14.0595H78.0859V22.8359H75.08V14.0595H71.7011ZM92.3326 11.6021V22.8359H89.7875L85.7283 16.9338H85.6625V22.8359H82.6127V11.6021H85.2017L89.195 17.4823H89.2828V11.6021H92.3326ZM93.7753 22.8359V11.6021H101.872V14.0595H96.8251V15.9903H101.455V18.4477H96.8251V20.3785H101.85V22.8359H93.7753ZM103.077 14.0595V11.6021H112.841V14.0595H109.462V22.8359H106.456V14.0595H103.077Z" fill="white"/>
    </g>
    <defs>
        <clipPath id="clip0_487_1904">
            <rect width="154" height="154" fill="white"/>
        </clipPath>
    </defs>
</svg>
